<svg xmlns="http://www.w3.org/2000/svg" shape-rendering="geometricPrecision" text-rendering="geometricPrecision" image-rendering="optimizeQuality" fill-rule="evenodd" clip-rule="evenodd" viewBox="0 0 492 512.324"><circle fill="#F33" cx="231.181" cy="231.181" r="231.181"/><path fill="#B22424" d="M437.687 127.171C471.6 167.894 492 220.259 492 277.396c0 129.746-105.183 234.928-234.928 234.928-103.431 0-191.249-66.843-222.619-159.684 40.74 65.851 113.605 109.722 196.728 109.722 127.682 0 231.181-103.499 231.181-231.181 0-37.412-8.899-72.749-24.675-104.01z"/><path fill="#fff" fill-rule="nonzero" d="M129.413 177.369h53.807l44.505-44.839c3.299-3.299 8.634-3.325 11.932-.026 1.677 1.624 2.502 3.789 2.502 5.98h.026v185.359c0 4.665-3.789 8.48-8.482 8.48a8.465 8.465 0 01-6.055-2.552l-43.989-35.741h-54.246c-7.422 0-14.175-3.04-19.047-7.913-4.897-4.87-7.937-11.623-7.937-19.045v-62.719c0-7.422 3.04-14.175 7.913-19.045 4.896-4.899 11.649-7.939 19.071-7.939z"/><path fill="#fff" d="M338.502 188.811c5.23-5.306 13.731-5.332 18.982-.049 5.258 5.279 5.279 13.859.054 19.165l-22.934 23.262 22.956 23.288c5.187 5.268 5.112 13.795-.151 19.052-5.273 5.256-13.746 5.24-18.923-.027l-22.81-23.122-22.843 23.17a13.323 13.323 0 01-18.982.048c-5.251-5.278-5.273-13.859-.048-19.164l22.934-23.262-22.961-23.288c-5.182-5.263-5.112-13.795.156-19.052 5.267-5.257 13.741-5.241 18.923.027l22.805 23.122 22.842-23.17z"/></svg>